# xmcd
#
# Track frame offsets:
#	150
#	26838
#	42636
#	60520
#	81540
#	124478
#	148680
#	164925
#	185765
#	207839
#	213532
#
# Disc length: 3150 seconds
#
# Revision: 1
# Processed by: cddbd v1.5.2PL0 Copyright (c) Steve Scherf et al.
# Submitted via: EasyCDDAExtractor 16.0.1.1
#
DISCID=b90c4c0b
DTITLE=Jerry Douglas - The Best Kept Secret
DYEAR=2005
DGENRE=Country
TTITLE0=Jerry Douglas and Derek Trucks  - She Makes Me Want To Sing
TTITLE1=Jerry Douglas and Sam Bush and Béla Fleck  - Who's Your Uncle?
TTITLE2=Jerry Douglas and Alison Krauss  - Back In Love Again
TTITLE3=Jerry Douglas - A Remark You Made
TTITLE4=Jerry Douglas - The Best Kept Secret
TTITLE5=Jerry Douglas and Bill Frisell  - 'Lil Roro
TTITLE6=Jerry Douglas and John Fogerty  - Swing Blues No 1
TTITLE7=Jerry Douglas - Snow's First Fall
TTITLE8=Jerry Douglas - Ya Ya Etc 
TTITLE9=Jerry Douglas - U R My Flower
TTITLE10=Jerry Douglas - Sir Aly B
EXTD=
EXTT0=
EXTT1=
EXTT2=
EXTT3=
EXTT4=
EXTT5=
EXTT6=
EXTT7=
EXTT8=
EXTT9=
EXTT10=
PLAYORDER=
